<svg width="23" height="99" viewBox="0 0 23 99" fill="none" xmlns="http://www.w3.org/2000/svg">
<g clip-path="url(#clip0_1_160)">
<path fill-rule="evenodd" clip-rule="evenodd" d="M16.2416 76.0735C14.1256 75.9748 8.8845 75.9795 6.76658 76.0735C4.9055 76.1607 3.26387 76.6101 1.94042 77.9336C-0.0388396 79.9128 -0.0205821 82.5075 0.00514189 86.1634C0.00816467 86.5929 0.0112905 87.0372 0.0112905 87.4968C0.0112905 87.927 0.00898661 88.3427 0.00675863 88.7447C-0.0141831 92.5234 -0.0284134 95.0912 1.94042 97.06C3.9233 99.042 6.54661 99.0225 10.1611 98.9957L10.1615 98.9957C10.5945 98.9925 11.0416 98.9891 11.5036 98.9891H11.566H11.566C15.9494 98.9891 17.4718 98.9891 19.0313 98.3854C21.1617 97.5583 22.7698 95.6541 22.927 92.2338C23.0266 90.1169 23.0209 84.8767 22.927 82.7588C22.7372 78.7213 20.5704 76.2728 16.2416 76.0735ZM19.591 95.5966C18.2557 96.932 16.444 96.9278 12.531 96.9188H12.5302C12.1946 96.918 11.8434 96.9172 11.4758 96.9172C11.2501 96.9172 11.0308 96.9174 10.8176 96.9175C6.50432 96.9206 4.69667 96.9219 3.36067 95.5823C1.97076 94.1989 1.99374 92.0943 2.0271 89.0397C2.0325 88.5455 2.03817 88.0264 2.03817 87.4815C2.03817 87.0194 2.03403 86.5685 2.03 86.1304C1.98793 81.548 1.95857 78.3497 6.80875 78.1013L6.86374 78.0994C8.0412 78.0577 8.43567 78.0438 11.4624 78.0438L11.5055 78.0725C11.9431 78.0725 12.3727 78.0686 12.7924 78.0648C17.2715 78.0238 20.6399 77.9931 20.8598 82.8508C20.9145 84.0631 20.9269 84.4273 20.9269 87.4958C20.9269 87.771 20.9271 88.0366 20.9274 88.2933V88.2956C20.9313 92.4555 20.933 94.2483 19.591 95.5966ZM11.5038 81.5949C8.2426 81.5949 5.6024 84.2379 5.6024 87.4963C5.6024 90.7575 8.24548 93.3977 11.5038 93.3977C14.765 93.3977 17.4052 90.7546 17.4052 87.4963C17.4052 84.2351 14.7621 81.5949 11.5038 81.5949ZM11.5038 91.3267C9.38685 91.3267 7.67335 89.6123 7.67335 87.4963C7.67335 85.3803 9.38781 83.6658 11.5038 83.6658C13.6198 83.6658 15.3343 85.3803 15.3343 87.4963C15.3352 89.6123 13.6208 91.3267 11.5038 91.3267ZM19.0181 81.3621C19.0181 82.1237 18.4007 82.7411 17.639 82.7411C16.8774 82.7411 16.26 82.1237 16.26 81.3621C16.26 80.6004 16.8774 79.983 17.639 79.983C18.4007 79.983 19.0181 80.6004 19.0181 81.3621Z" fill="#46B8C8"/>
</g>
<g clip-path="url(#clip1_1_160)">
<path d="M23 4.36856C22.1447 4.74375 21.2333 4.99244 20.2831 5.11319C21.2606 4.52956 22.0067 3.61244 22.3574 2.507C21.4461 3.05037 20.4398 3.43419 19.3674 3.64838C18.5021 2.72694 17.2687 2.15625 15.9232 2.15625C13.3127 2.15625 11.2111 4.27513 11.2111 6.87269C11.2111 7.24644 11.2427 7.60581 11.3203 7.94794C7.40025 7.75675 3.93156 5.87794 1.60137 3.01588C1.19456 3.72169 0.955938 4.52956 0.955938 5.39925C0.955938 7.03225 1.79688 8.47981 3.05037 9.31787C2.29281 9.3035 1.54962 9.08356 0.92 8.73712C0.92 8.7515 0.92 8.77019 0.92 8.78887C0.92 11.0802 2.55444 12.9835 4.69775 13.4219C4.31394 13.5269 3.89562 13.5772 3.4615 13.5772C3.15963 13.5772 2.85487 13.5599 2.56881 13.4967C3.17975 15.364 4.91338 16.7368 6.97475 16.7814C5.3705 18.0363 3.33356 18.7924 1.12844 18.7924C0.74175 18.7924 0.370875 18.7752 0 18.7277C2.08869 20.0747 4.56406 20.8438 7.2335 20.8438C15.9102 20.8438 20.654 13.6562 20.654 7.42613C20.654 7.21769 20.6468 7.01644 20.6367 6.81663C21.5726 6.1525 22.3589 5.32306 23 4.36856Z" fill="#46B8C8"/>
</g>
<path fill-rule="evenodd" clip-rule="evenodd" d="M2.55556 61H20.4444C21.8558 61 23 59.8558 23 58.4444V40.5556C23 39.1442 21.8558 38 20.4444 38H2.55556C1.14416 38 0 39.1442 0 40.5556V58.4444C0 59.8558 1.14416 61 2.55556 61ZM19.8056 57.8056H16.3925V51.9923C16.3925 50.3985 15.7869 49.5078 14.5254 49.5078C13.153 49.5078 12.436 50.4347 12.436 51.9923V57.8056H9.14676V46.7315H12.436V48.2232C12.436 48.2232 13.425 46.3932 15.775 46.3932C18.1239 46.3932 19.8056 47.8275 19.8056 50.7941V57.8056ZM5.22271 45.2814C4.10232 45.2814 3.19444 44.3664 3.19444 43.2379C3.19444 42.1094 4.10232 41.1944 5.22271 41.1944C6.34309 41.1944 7.25043 42.1094 7.25043 43.2379C7.25043 44.3664 6.34309 45.2814 5.22271 45.2814ZM3.52429 57.8056H6.95411V46.7315H3.52429V57.8056Z" fill="#46B8C8"/>
<defs>
<clipPath id="clip0_1_160">
<rect width="23" height="23" fill="white" transform="translate(0 76)"/>
</clipPath>
<clipPath id="clip1_1_160">
<rect width="23" height="23" fill="white"/>
</clipPath>
</defs>
</svg>
